<svg width="1920" height="2933" viewBox="0 0 1920 2933" fill="none" xmlns="http://www.w3.org/2000/svg">
<path d="M3110.34 500.574C2430.75 603.376 1365.28 811.42 1907.33 1468.16C2597.12 2303.92 4282.75 2084.97 3534.11 2730.03" stroke="white" stroke-opacity="0.5" stroke-width="15.5706"/>
<path d="M2869.98 465.514C2190.4 568.316 1124.93 776.36 1666.97 1433.1C2356.76 2268.86 4042.39 2049.91 3293.75 2694.97" stroke="white" stroke-opacity="0.5" stroke-width="15.5706"/>
<path d="M2628.96 435.374C1949.37 538.176 883.901 746.22 1425.95 1402.96C2115.74 2238.72 3801.37 2019.77 3052.72 2664.83" stroke="white" stroke-opacity="0.5" stroke-width="15.5706"/>
<path d="M2387.28 411.03C1707.69 513.832 642.221 721.876 1184.27 1378.62C1874.06 2214.37 3559.69 1995.43 2811.04 2640.49" stroke="white" stroke-opacity="0.5" stroke-width="15.5706"/>
<path d="M2143.55 392.81C1463.96 495.612 398.492 703.656 940.537 1360.4C1630.33 2196.15 3315.96 1977.21 2567.31 2622.27" stroke="white" stroke-opacity="0.5" stroke-width="15.5706"/>
<path d="M1901.05 378.786C1221.47 481.588 155.995 689.633 698.04 1346.38C1387.83 2182.13 3073.46 1963.19 2324.82 2608.25" stroke="white" stroke-opacity="0.5" stroke-width="15.5706"/>
<path d="M1658.38 368.267C978.792 471.068 -86.6779 679.113 455.367 1335.86C1145.16 2171.61 2830.79 1952.67 2082.14 2597.73" stroke="white" stroke-opacity="0.5" stroke-width="15.5706"/>
<path d="M1415.57 361.731C735.978 464.533 -329.493 672.577 212.553 1329.32C902.343 2165.07 2587.98 1946.13 1839.33 2591.19" stroke="white" stroke-opacity="0.5" stroke-width="15.5706"/>
<path d="M1172.67 359.782C493.084 462.584 -572.387 670.628 -30.3415 1327.37C659.449 2163.13 2345.08 1944.18 1596.43 2589.24" stroke="white" stroke-opacity="0.5" stroke-width="15.5706"/>
<path d="M929.794 363.19C250.205 465.992 -815.265 674.036 -273.22 1330.78C416.571 2166.53 2102.2 1947.59 1353.56 2592.65" stroke="white" stroke-opacity="0.5" stroke-width="15.5706"/>
<path d="M687.089 372.966C7.50008 475.767 -1057.97 683.812 -515.925 1340.56C173.866 2176.31 1859.5 1957.37 1110.85 2602.43" stroke="white" stroke-opacity="0.5" stroke-width="15.5706"/>
<path d="M444.818 390.478C-234.771 493.28 -1300.24 701.324 -758.196 1358.07C-68.405 2193.82 1617.23 1974.88 868.581 2619.94" stroke="white" stroke-opacity="0.5" stroke-width="15.5706"/>
<path d="M203.437 417.649C-476.152 520.45 -1541.62 728.495 -999.577 1385.24C-309.786 2220.99 1375.85 2002.05 627.2 2647.11" stroke="white" stroke-opacity="0.5" stroke-width="15.5706"/>
<path d="M-36.2289 457.25C-715.818 560.051 -1781.29 768.096 -1239.24 1424.84C-549.452 2260.59 1136.18 2041.65 387.533 2686.71" stroke="white" stroke-opacity="0.5" stroke-width="15.5706"/>
<path d="M-272.524 513.238C-952.113 616.04 -2017.58 824.084 -1475.54 1480.83C-785.747 2316.58 899.885 2097.64 151.239 2742.7" stroke="white" stroke-opacity="0.5" stroke-width="15.5706"/>
<path d="M-501.896 587.92C-1181.49 690.721 -2246.96 898.766 -1704.91 1555.51C-1015.12 2391.26 670.512 2172.32 -78.1341 2817.38" stroke="white" stroke-opacity="0.5" stroke-width="15.5706"/>
</svg>
